HIERARCHY
ROOT Hip
{
	OFFSET 0 1.131 0.0052
	CHANNELS 6 Xposition Yposition Zposition Xrotation Yrotation Zrotation
	JOINT Abdomen
	{
		OFFSET 0 -0.047353 -0.05
		CHANNELS 3 Xrotation Zrotation Yrotation
		JOINT Chest
		{
			OFFSET 0 0.132153 0.007439
			CHANNELS 3 Xrotation Zrotation Yrotation
			JOINT Neck
			{
				OFFSET 0 0.3078 0.006161
				CHANNELS 3 Xrotation Zrotation Yrotation
				JOINT Head_comp
				{
					OFFSET 0 0.0884 0.013
					CHANNELS 3 Xrotation Yrotation Zrotation
					End Site
					{
						OFFSET -0 0.156 0.0624
					}
				}
			}
			JOINT Left_Collar
			{
				OFFSET 0.02282 0.250342 0.017193
				CHANNELS 2 Yrotation Zrotation
				JOINT Left_Shoulder
				{
					OFFSET 0.15421 0 0
					CHANNELS 3 Xrotation Yrotation Zrotation
					JOINT Left_Forearm
					{
						OFFSET 0.265212 0 0
						CHANNELS 2 Yrotation Xrotation
						JOINT Left_Hand
						{
							OFFSET 0.27571 0 0
							CHANNELS 2 Zrotation Yrotation
							JOINT L1ProxPhalanx
							{
								OFFSET 0.014142 0.001733 0.014142
								CHANNELS 3 Yrotation Zrotation Xrotation
								JOINT L1MidPhalanx
								{
									OFFSET 0.04 0 0
									CHANNELS 1 Zrotation
									JOINT L1DistPhalanx
									{
										OFFSET 0.035 0 0
										CHANNELS 1 Zrotation
										End Site
										{
											OFFSET 0.029 -0 -0
										}
									}
								}
							}
							JOINT L2ProxPhalanx
							{
								OFFSET 0.0821037 0.001578 0.0219996
								CHANNELS 2 Yrotation Zrotation
								JOINT L2MidPhalanx
								{
									OFFSET 0.04 0 0
									CHANNELS 1 Zrotation
									JOINT L2DistPhalanx
									{
										OFFSET 0.028 0 0
										CHANNELS 1 Zrotation
										End Site
										{
											OFFSET 0.02 -0 -0
										}
									}
								}
							}
							JOINT L3ProxPhalanx
							{
								OFFSET 0.083 0 0
								CHANNELS 2 Yrotation Zrotation
								JOINT L3MidPhalanx
								{
									OFFSET 0.053 0 0
									CHANNELS 1 Zrotation
									JOINT L3DistPhalanx
									{
										OFFSET 0.03 0 0
										CHANNELS 1 Zrotation
										End Site
										{
											OFFSET 0.023 -0 -0
										}
									}
								}
							}
							JOINT L4ProxPhalanx
							{
								OFFSET 0.077274 -0.000761 -0.0207055
								CHANNELS 2 Yrotation Zrotation
								JOINT L4MidPhalanx
								{
									OFFSET 0.05 0 0
									CHANNELS 1 Zrotation
									JOINT L4DistPhalanx
									{
										OFFSET 0.03 0 0
										CHANNELS 1 Zrotation
										End Site
										{
											OFFSET 0.023 -0 -0
										}
									}
								}
							}
							JOINT L5ProxPhalanx
							{
								OFFSET 0.0675499 -0.001644 -0.039
								CHANNELS 2 Yrotation Zrotation
								JOINT L5MidPhalanx
								{
									OFFSET 0.04 0 0
									CHANNELS 1 Zrotation
									JOINT L5DistPhalanx
									{
										OFFSET 0.021 0 0
										CHANNELS 1 Zrotation
										End Site
										{
											OFFSET 0.022 -0 -0
										}
									}
								}
							}
						}
					}
				}
			}
			JOINT Right_Collar
			{
				OFFSET -0.02282 0.250342 0.017193
				CHANNELS 2 Yrotation Zrotation
				JOINT Right_Shoulder
				{
					OFFSET -0.15421 0 0
					CHANNELS 3 Xrotation Yrotation Zrotation
					JOINT Right_Forearm
					{
						OFFSET -0.265212 0 0
						CHANNELS 2 Yrotation Xrotation
						JOINT Right_Hand
						{
							OFFSET -0.27571 3e-006 0
							CHANNELS 2 Zrotation Yrotation
							JOINT R1ProxPhalanx
							{
								OFFSET -0.014142 0.001733 0.014142
								CHANNELS 3 Yrotation Zrotation Xrotation
								JOINT R1MidPhalanx
								{
									OFFSET -0.04 0 0
									CHANNELS 1 Zrotation
									JOINT R1DistPhalanx
									{
										OFFSET -0.035 0 0
										CHANNELS 1 Zrotation
										End Site
										{
											OFFSET -0.029 -0 -0
										}
									}
								}
							}
							JOINT R2ProxPhalanx
							{
								OFFSET -0.0821037 0.001578 0.0219996
								CHANNELS 2 Yrotation Zrotation
								JOINT R2MidPhalanx
								{
									OFFSET -0.04 0 0
									CHANNELS 1 Zrotation
									JOINT R2DistPhalanx
									{
										OFFSET -0.028 0 0
										CHANNELS 1 Zrotation
										End Site
										{
											OFFSET -0.02 -0 -0
										}
									}
								}
							}
							JOINT R3ProxPhalanx
							{
								OFFSET -0.083 0 0
								CHANNELS 2 Yrotation Zrotation
								JOINT R3MidPhalanx
								{
									OFFSET -0.053 0 0
									CHANNELS 1 Zrotation
									JOINT R3DistPhalanx
									{
										OFFSET -0.03 0 0
										CHANNELS 1 Zrotation
										End Site
										{
											OFFSET -0.023 -0 -0
										}
									}
								}
							}
							JOINT R4ProxPhalanx
							{
								OFFSET -0.077274 -0.000761 -0.0207055
								CHANNELS 2 Yrotation Zrotation
								JOINT R4MidPhalanx
								{
									OFFSET -0.05 0 0
									CHANNELS 1 Zrotation
									JOINT R4DistPhalanx
									{
										OFFSET -0.03 0 0
										CHANNELS 1 Zrotation
										End Site
										{
											OFFSET -0.023 -0 -0
										}
									}
								}
							}
							JOINT R5ProxPhalanx
							{
								OFFSET -0.0675499 -0.001644 -0.039
								CHANNELS 2 Yrotation Zrotation
								JOINT R5MidPhalanx
								{
									OFFSET -0.04 0 0
									CHANNELS 1 Zrotation
									JOINT R5DistPhalanx
									{
										OFFSET -0.021 0 0
										CHANNELS 1 Zrotation
										End Site
										{
											OFFSET -0.022 -0 -0
										}
									}
								}
							}
						}
					}
				}
			}
		}
	}
	JOINT Left_Thigh
	{
		OFFSET 0.1118 -0.1612 -0.0442
		CHANNELS 3 Xrotation Zrotation Yrotation
		JOINT Left_Shin
		{
			OFFSET 0 -0.477856 0
			CHANNELS 1 Xrotation
			JOINT Left_Foot
			{
				OFFSET 0 -0.431952 0
				CHANNELS 2 Xrotation Zrotation
				JOINT Left_Toe
				{
					OFFSET 0 -0.0442 0.119
					CHANNELS 1 Xrotation
					End Site
					{
						OFFSET -0 -0 0.07
					}
				}
			}
		}
	}
	JOINT Right_Thigh
	{
		OFFSET -0.1118 -0.1612 -0.0442
		CHANNELS 3 Xrotation Zrotation Yrotation
		JOINT Right_Shin
		{
			OFFSET 0 -0.477856 0
			CHANNELS 1 Xrotation
			JOINT Right_Foot
			{
				OFFSET 0 -0.431952 0
				CHANNELS 2 Xrotation Zrotation
				JOINT Right_Toe
				{
					OFFSET 0 -0.0442 0.119
					CHANNELS 1 Xrotation
					End Site
					{
						OFFSET -0 -0 0.07
					}
				}
			}
		}
	}
}
MOTION
Frames: 15
Frame Time: 0.009975
-0.0991678 -0.0601214 0.0477037 -2.71971e-013 4.94053e-008 -5.10957e-006 0 -0 0 0 -0 0 0 -0 0 -0.712766 0.285167 -1.18103e-011 9.44865 -19.8989 1.43656 -11.5231 -27.5092 -115.741 -4.21955 12.3301 -4.04623 -40.5316 -43.5896 103.283 -7.10789 -4.81548 2.69559 -7.40342 -2.98992 -6.72733 5.89092 0.508958 -5.4973 -5.3917 11.1257 1.19015 -12.1062 -9.35422 19.4153 3.33565 -41.2194 -1.46018 -1.55616 20.655 -16.4707 21.1233 29.3828 50.4104 8.87679 -2.95548 -11.3791 31.6174 60.1306 105.945 18.7199 24.5693 -9.16789 30.2797 12.7872 19.8603 -6.2368 65.6545 74.467 44.1629 -8.89905 64.8725 94.3015 17.3804 -26.5703 45.1437 127.588 1.69237 0.536775 -0.795542 -0.00745288 0.0240216 -0.560744 0.795582 0 0.54818 -0.79554 -0.00761125 8.49505e-007 -0.548128 0.795582 0 
-0.0990638 -0.0601212 0.0475334 -2.26595e-013 4.83649e-008 -5.10959e-006 0 -0 0 0 -0 0 0 -0 0 -0.712753 0.284813 -7.58433e-012 9.44865 -19.8989 1.43656 -11.5231 -27.5092 -115.741 -4.21955 12.3301 -4.04623 -40.5316 -43.5896 103.283 -7.10789 -4.81548 2.69559 -7.40342 -2.98992 -6.72733 5.89092 0.508958 -5.4973 -5.3917 11.1257 1.19015 -12.1062 -9.35422 19.4153 3.33565 -41.2194 -1.46018 -1.08567 20.5506 -16.6943 21.3375 29.1648 47.9262 9.37016 -2.2943 -10.8706 28.6134 58.2397 118.222 19.6538 15.1824 -5.92666 13.1446 7.9133 7.55742 -7.844 53.1384 67.528 45.5217 -8.60552 54.9896 89.9127 14.9844 -17.2043 48.8306 124.387 -4.1459 0.526049 -0.802093 -0.00736411 0.0240216 -0.550019 0.802132 0 0.537455 -0.802092 -0.00752378 1.70755e-006 -0.537404 0.802132 0 
-0.0989618 -0.0601212 0.0473784 7.61475e-013 4.74888e-008 -5.10961e-006 0 -0 0 0 -0 0 0 -0 0 -0.71274 0.284515 -5.94905e-012 9.44865 -19.8989 1.43656 -11.5231 -27.5092 -115.741 -4.21955 12.3301 -4.04623 -40.5316 -43.5896 103.283 -7.10789 -4.81548 2.69559 -7.40342 -2.98992 -6.72733 5.89092 0.508958 -5.4973 -5.3917 11.1257 1.19015 -12.1062 -9.35422 19.4153 3.33565 -41.2194 -1.46018 -0.63662 20.4693 -16.8736 21.4822 28.8767 45.8277 9.85406 -1.77446 -10.4464 34.5107 58.4342 125.037 19.4867 3.22795 -7.65062 32.7545 20.3757 33.8131 -7.9596 58.8818 60.4396 48.6139 -8.3002 60.6698 83.1071 14.2682 -17.1727 52.9863 121.747 -4.28754 0.51629 -0.808517 -0.00728539 0.0240216 -0.540261 0.808555 0 0.527696 -0.808516 -0.00744634 2.41484e-006 -0.527646 0.808555 0 
-0.0988657 -0.0601216 0.0472738 7.41707e-013 4.66203e-008 -5.10962e-006 0 -0 0 0 -0 0 0 -0 0 -0.712732 0.284269 3.86075e-013 9.44865 -19.8989 1.43656 -11.5231 -27.5092 -115.741 -4.21955 12.3301 -4.04623 -40.5316 -43.5896 103.283 -7.10789 -4.81548 2.69559 -7.40342 -2.98992 -6.72733 5.89092 0.508958 -5.4973 -5.3917 11.1257 1.19015 -12.1062 -9.35422 19.4153 3.33565 -41.2194 -1.46018 -0.275648 20.4664 -17.2239 21.5099 28.5415 43.9789 10.6134 -2.00685 -10.0772 39.1912 54.1467 104.497 16.277 19.0368 -7.89008 31.1423 15.8481 29.2202 -8.00344 60.7203 64.0906 63.5753 -7.62842 67.2062 87.8459 32.0797 -9.48836 67.1121 105.969 21.3444 0.509703 -0.81457 -0.00724637 0.0240216 -0.533673 0.814607 0 0.521109 -0.814569 -0.00740852 1.70755e-006 -0.521059 0.814607 0 
-0.0987705 -0.0601222 0.0471945 3.07051e-013 4.63211e-008 -5.10963e-006 0 -0 0 0 -0 0 0 -0 0 -0.712729 0.283958 -4.77821e-012 9.44865 -19.8989 1.43656 -11.5231 -27.5092 -115.741 -4.21955 12.3301 -4.04623 -40.5316 -43.5896 103.283 -7.10789 -4.81548 2.69559 -7.40342 -2.98992 -6.72733 5.89092 0.508958 -5.4973 -5.3917 11.1257 1.19015 -12.1062 -9.35422 19.4153 3.33565 -41.2194 -1.46018 -0.00545931 20.5214 -17.6156 21.5313 28.2605 42.3969 11.3345 -2.39754 -9.73511 43.4721 47.1311 94.6419 19.978 22.2192 -5.27745 28.9439 25.5183 37.218 -6.78223 60.7088 64.4769 69.7545 -6.47065 67.2824 86.2527 34.6413 -5.41803 68.021 104.133 22.4838 0.50471 -0.820564 -0.00722812 0.0240216 -0.52868 0.820601 0 0.516116 -0.820562 -0.00739147 2.41484e-006 -0.516065 0.820601 0 
-0.0987045 -0.0601225 0.0471158 7.62042e-013 4.57208e-008 -5.10965e-006 0 -0 0 0 -0 0 0 -0 0 -0.712724 0.283706 -7.32906e-013 9.44865 -19.8989 1.43656 -11.5231 -27.5092 -115.741 -4.21955 12.3301 -4.04623 -40.5316 -43.5896 103.283 -7.10789 -4.81548 2.69559 -7.40342 -2.98992 -6.72733 5.89092 0.508958 -5.4973 -5.3917 11.1257 1.19015 -12.1062 -9.35422 19.4153 3.33565 -41.2194 -1.46018 0.267071 20.6161 -17.9078 21.5045 28.0197 41.1286 11.8519 -2.35843 -9.42029 56.1459 49.5533 103.978 30.0528 2.7383 -4.08867 50.9672 47.6265 74.1752 -2.78191 71.8248 66.4452 62.72 -3.38462 74.5168 85.1932 15.5657 -8.00251 60.8208 120.31 -0.263756 0.49975 -0.824723 -0.00719344 0.0240216 -0.52372 0.82476 0 0.511156 -0.824722 -0.00735761 8.79387e-007 -0.511104 0.82476 0 
-0.098667 -0.0601226 0.0470722 1.54579e-012 4.54433e-008 -5.10965e-006 0 -0 0 0 -0 0 0 -0 0 -0.712722 0.283518 -6.55936e-013 9.44865 -19.8989 1.43656 -11.5231 -27.5092 -115.741 -4.21955 12.3301 -4.04623 -40.5316 -43.5896 103.283 -7.10789 -4.81548 2.69559 -7.40342 -2.98992 -6.72733 5.89092 0.508958 -5.4973 -5.3917 11.1257 1.19015 -12.1062 -9.35422 19.4153 3.33565 -41.2194 -1.46018 0.453752 20.6933 -18.104 21.5191 27.8463 40.109 12.1916 -2.35664 -9.0962 49.3411 49.891 88.5113 21.2245 25.5925 -5.83349 32.517 24.9368 39.451 -4.49033 68.3878 65.9141 67.9762 -3.45578 71.5557 90.169 19.2467 -8.95753 63.0347 116.151 -1.09609 0.497004 -0.827086 -0.00717441 0.0240216 -0.520974 0.827122 0 0.50841 -0.827085 -0.00733905 8.23892e-007 -0.508358 0.827122 0 
-0.098626 -0.0601229 0.0470368 -1.51283e-014 4.52321e-008 -5.10966e-006 0 -0 0 0 -0 0 0 -0 0 -0.712721 0.28335 -3.30788e-013 9.44865 -19.8989 1.43656 -11.5231 -27.5092 -115.741 -4.21955 12.3301 -4.04623 -40.5316 -43.5896 103.283 -7.10789 -4.81548 2.69559 -7.40342 -2.98992 -6.72733 5.89092 0.508958 -5.4973 -5.3917 11.1257 1.19015 -12.1062 -9.35422 19.4153 3.33565 -41.2194 -1.46018 0.596823 20.7308 -18.1807 21.5131 27.7284 39.3776 12.2989 -2.37852 -8.89747 39.0383 57.7294 87.1452 12.8271 38.8972 -8.85583 28.412 12.7812 18.1523 -6.76939 68.4326 65.4902 65.2878 -5.22593 71.1304 92.2536 24.533 -16.7532 58.4753 119.962 -1.6457 0.494775 -0.829668 -0.00716453 0.0240216 -0.518745 0.829704 0 0.506181 -0.829667 -0.00732969 8.87925e-007 -0.506129 0.829704 0 
-0.0985865 -0.0601234 0.04703 3.48192e-013 4.50457e-008 -5.10966e-006 0 -0 0 0 -0 0 0 -0 0 -0.712723 0.283181 1.88633e-012 9.44865 -19.8989 1.43656 -11.5231 -27.5092 -115.741 -4.21955 12.3301 -4.04623 -40.5316 -43.5896 103.283 -7.10789 -4.81548 2.69559 -7.40342 -2.98992 -6.72733 5.89092 0.508958 -5.4973 -5.3917 11.1257 1.19015 -12.1062 -9.35422 19.4153 3.33565 -41.2194 -1.46018 0.647392 20.6903 -18.2975 21.5179 27.7393 38.8124 12.3279 -2.48823 -8.73749 33.6916 59.8664 99.4616 14.3037 28.7951 -9.20284 29.8914 13.1925 18.743 -6.8636 67.1935 69.2518 53.6112 -5.91623 69.9153 94.3895 20.391 -17.7647 53.0578 127.161 -2.84947 0.494351 -0.832154 -0.00717986 0.0240216 -0.518321 0.83219 0 0.505757 -0.832153 -0.00734551 1.15308e-006 -0.505705 0.83219 0 
-0.0985593 -0.0601239 0.0470363 1.20734e-012 4.51695e-008 -5.10966e-006 0 -0 0 0 -0 0 0 -0 0 -0.712726 0.283067 -6.23904e-014 9.44865 -19.8989 1.43656 -11.5231 -27.5092 -115.741 -4.21955 12.3301 -4.04623 -40.5316 -43.5896 103.283 -7.10789 -4.81548 2.69559 -7.40342 -2.98992 -6.72733 5.89092 0.508958 -5.4973 -5.3917 11.1257 1.19015 -12.1062 -9.35422 19.4153 3.33565 -41.2194 -1.46018 0.634171 20.6592 -18.4802 21.5007 27.8296 38.4119 12.3016 -2.54683 -8.62791 33.0847 57.8197 98.3366 14.1595 30.432 -10.5677 29.2643 10.9572 18.4286 -6.74041 68.4709 67.6193 56.2442 -6.46774 69.6914 93.0037 22.0186 -18.7223 54.9591 125.996 0.4272 0.494746 -0.833868 -0.00720037 0.0240216 -0.518715 0.833904 0 0.506152 -0.833866 -0.00736636 2.41484e-006 -0.5061 0.833904 0 
-0.0985573 -0.060124 0.0470441 -2.63366e-013 4.51075e-008 -5.10967e-006 0 -0 0 0 -0 0 0 -0 0 -0.712727 0.283022 1.61691e-013 9.44865 -19.8989 1.43656 -11.5231 -27.5092 -115.741 -4.21955 12.3301 -4.04623 -40.5316 -43.5896 103.283 -7.10789 -4.81548 2.69559 -7.40342 -2.98992 -6.72733 5.89092 0.508958 -5.4973 -5.3917 11.1257 1.19015 -12.1062 -9.35422 19.4153 3.33565 -41.2194 -1.46018 0.628209 20.6752 -18.5408 21.4493 27.9159 38.2314 12.069 -2.35222 -8.51328 37.9213 57.4866 96.1325 15.6633 31.2808 -9.61405 34.9846 14.4842 22.0795 -5.33586 69.1959 65.11 59.2445 -6.13606 69.7889 87.5822 25.7091 -19.2621 56.0106 124.752 2.56914 0.495238 -0.833991 -0.0072086 0.0240216 -0.519207 0.834027 0 0.506644 -0.833989 -0.00737461 9.00731e-007 -0.506591 0.834027 0 
-0.0985593 -0.0601241 0.0470606 4.65932e-013 4.52693e-008 -5.10966e-006 0 -0 0 0 -0 0 0 -0 0 -0.712728 0.283012 -1.89799e-014 9.44865 -19.8989 1.43656 -11.5231 -27.5092 -115.741 -4.21955 12.3301 -4.04623 -40.5316 -43.5896 103.283 -7.10789 -4.81548 2.69559 -7.40342 -2.98992 -6.72733 5.89092 0.508958 -5.4973 -5.3917 11.1257 1.19015 -12.1062 -9.35422 19.4153 3.33565 -41.2194 -1.46018 0.605109 20.6555 -18.6378 21.3537 28.0547 38.161 11.8975 -2.21594 -8.39248 47.9235 53.9984 95.0261 19.1067 22.4506 -5.0564 30.7936 21.5021 24.8349 -3.88676 65.2167 63.8598 57.4775 -3.66823 67.4362 81.9992 30.0722 -8.50962 61.5627 118.476 4.99486 0.496274 -0.833866 -0.00722259 0.0240216 -0.520243 0.833902 0 0.50768 -0.833865 -0.00738858 8.02547e-007 -0.507627 0.833902 0 
-0.0985553 -0.0601242 0.0470718 1.47387e-012 4.52841e-008 -5.10966e-006 0 -0 0 0 -0 0 0 -0 0 -0.712729 0.283023 -3.15509e-014 9.44865 -19.8989 1.43656 -11.5231 -27.5092 -115.741 -4.21955 12.3301 -4.04623 -40.5316 -43.5896 103.283 -7.10789 -4.81548 2.69559 -7.40342 -2.98992 -6.72733 5.89092 0.508958 -5.4973 -5.3917 11.1257 1.19015 -12.1062 -9.35422 19.4153 3.33565 -41.2194 -1.46018 0.578901 20.6354 -18.7709 21.2569 28.1449 38.1734 11.8616 -2.23604 -8.41214 42.2564 60.3719 104.359 19.5714 19.7392 -7.88791 38.2541 24.4782 31.5951 -6.96792 67.0644 60.666 60.304 -8.71392 65.5496 84.2237 27.0477 -19.6944 54.5154 123.608 5.87639 0.49698 -0.83412 -0.00723507 0.0240216 -0.520949 0.834156 0 0.508386 -0.834118 -0.00740111 9.09269e-007 -0.508333 0.834156 0 
-0.0985483 -0.0601245 0.0470921 -8.10061e-013 4.54021e-008 -5.10966e-006 0 -0 0 0 -0 0 0 -0 0 -0.712732 0.283001 3.42797e-013 9.44865 -19.8989 1.43656 -11.5231 -27.5092 -115.741 -4.21955 12.3301 -4.04623 -40.5316 -43.5896 103.283 -7.10789 -4.81548 2.69559 -7.40342 -2.98992 -6.72733 5.89092 0.508958 -5.4973 -5.3917 11.1257 1.19015 -12.1062 -9.35422 19.4153 3.33565 -41.2194 -1.46018 0.537642 20.6232 -18.8953 21.1805 28.2198 38.232 11.8538 -2.16647 -8.45368 31.006 55.4657 98.0681 14.8215 27.749 -9.71045 21.5036 7.68475 8.77972 -9.27625 56.6017 63.3853 70.9887 -11.2746 55.7157 91.1438 27.3765 -26.5759 44.0491 128.974 -9.73743 0.498258 -0.83456 -0.00725751 0.0240216 -0.522227 0.834597 0 0.509664 -0.834559 -0.00742364 1.1229e-006 -0.509611 0.834597 0 
-0.0985284 -0.0601249 0.0471021 -7.49625e-013 4.55121e-008 -5.10966e-006 0 -0 0 0 -0 0 0 -0 0 -0.712734 0.282945 1.2913e-013 9.44865 -19.8989 1.43656 -11.5231 -27.5092 -115.741 -4.21955 12.3301 -4.04623 -40.5316 -43.5896 103.283 -7.10789 -4.81548 2.69559 -7.40342 -2.98992 -6.72733 5.89092 0.508958 -5.4973 -5.3917 11.1257 1.19015 -12.1062 -9.35422 19.4153 3.33565 -41.2194 -1.46018 0.491894 20.6 -19.0047 21.1086 28.3026 38.3193 11.8725 -2.06755 -8.52068 35.431 54.194 100.691 16.0392 16.9485 -10.0349 28.0293 12.7866 19.3767 -8.66751 56.1633 67.4138 73.0656 -9.66023 57.584 91.1009 25.6624 -24.8674 45.466 127.496 -12.7047 0.498891 -0.835813 -0.00727764 0.0240216 -0.52286 0.835849 0 0.510297 -0.835811 -0.00744402 2.41484e-006 -0.510245 0.835849 0 
